<svg width="30" height="23" viewBox="0 0 30 23" fill="none" xmlns="http://www.w3.org/2000/svg">
<ellipse cx="19.1001" cy="10" rx="10" ry="10" fill="#FBA823"/>
<path fill-rule="evenodd" clip-rule="evenodd" d="M5.85001 22.375C2.61914 22.375 0 19.6887 0 16.375C0 13.0613 2.61914 10.375 5.85001 10.375C7.02501 10.375 8.11911 10.7303 9.03574 11.3419C9.92113 8.64635 12.4583 6.70001 15.45 6.70001C19.1779 6.70001 22.2 9.72209 22.2 13.45C22.2 13.94 22.1478 14.4177 22.0487 14.878C22.0989 14.876 22.1493 14.875 22.2 14.875C24.2711 14.875 25.95 16.5539 25.95 18.625C25.95 20.6961 24.2711 22.375 22.2 22.375C21.9166 22.375 21.6405 22.3436 21.375 22.284V22.375H5.85334C5.85223 22.375 5.85112 22.375 5.85001 22.375Z" fill="#D9D9D9"/>
</svg>
