<svg width="428" height="327" viewBox="0 0 428 327" fill="none" xmlns="http://www.w3.org/2000/svg">
<path fill-rule="evenodd" clip-rule="evenodd" d="M-224.948 234.3C-224.965 234.3 -224.983 234.3 -225 234.3C-225.017 234.3 -225.035 234.3 -225.052 234.3H-229.4V234.192C-275.957 231.899 -313 193.426 -313 146.3C-313 97.6989 -273.601 58.3 -225 58.3C-221.474 58.3 -217.996 58.5074 -214.578 58.9106C-202.567 24.6043 -169.907 0 -131.5 0C-105.068 0 -81.3582 11.6532 -65.2273 30.1023C-50.9656 20.1422 -33.615 14.3 -14.9 14.3C17.7096 14.3 46.1766 32.0372 61.3793 58.3902C62.712 58.3303 64.0525 58.3 65.4 58.3C114.001 58.3 153.4 97.6989 153.4 146.3C153.4 192.307 118.095 230.067 73.1 233.968V234.3H65.4524C65.435 234.3 65.4175 234.3 65.4 234.3C65.3826 234.3 65.3651 234.3 65.3476 234.3H-224.948Z" fill="#E3BB90" fill-opacity="0.7"/>
<path fill-rule="evenodd" clip-rule="evenodd" d="M230.052 248.3C230.035 248.3 230.017 248.3 230 248.3C229.983 248.3 229.965 248.3 229.948 248.3H225.6V248.192C179.043 245.899 142 207.426 142 160.3C142 111.699 181.399 72.3 230 72.3C233.526 72.3 237.004 72.5074 240.422 72.9106C252.433 38.6043 285.093 14 323.5 14C349.932 14 373.642 25.6532 389.773 44.1023C404.034 34.1422 421.385 28.3 440.1 28.3C472.71 28.3 501.177 46.0372 516.379 72.3902C517.712 72.3303 519.052 72.3 520.4 72.3C569.001 72.3 608.4 111.699 608.4 160.3C608.4 206.307 573.095 244.067 528.1 247.968V248.3H520.452C520.435 248.3 520.417 248.3 520.4 248.3C520.383 248.3 520.365 248.3 520.348 248.3H230.052Z" fill="#E3BB90" fill-opacity="0.8"/>
<path fill-rule="evenodd" clip-rule="evenodd" d="M66.0524 365.3C66.0349 365.3 66.0175 365.3 66 365.3C65.9825 365.3 65.9651 365.3 65.9476 365.3H61.6V365.192C15.0431 362.899 -22 324.426 -22 277.3C-22 228.699 17.3989 189.3 66 189.3C69.5261 189.3 73.0038 189.507 76.4215 189.911C88.4329 155.604 121.093 131 159.5 131C185.932 131 209.642 142.653 225.773 161.102C240.034 151.142 257.385 145.3 276.1 145.3C308.71 145.3 337.177 163.037 352.379 189.39C353.712 189.33 355.052 189.3 356.4 189.3C405.001 189.3 444.4 228.699 444.4 277.3C444.4 323.307 409.095 361.067 364.1 364.968V365.3H356.452C356.435 365.3 356.417 365.3 356.4 365.3C356.383 365.3 356.365 365.3 356.348 365.3H66.0524Z" fill="#E3BB90"/>
</svg>
