<svg width="35" height="16" viewBox="0 0 35 16" fill="none" xmlns="http://www.w3.org/2000/svg">
<path fill-rule="evenodd" clip-rule="evenodd" d="M5.85 15.675C2.61914 15.675 0 12.9887 0 9.675C0 6.36129 2.61914 3.675 5.85 3.675C7.02501 3.675 8.1191 4.0303 9.03573 4.64187C9.92112 1.94634 12.4583 0 15.45 0C19.1779 0 22.2 3.02208 22.2 6.75C22.2 7.23995 22.1478 7.7177 22.0487 8.178C22.0989 8.17601 22.1493 8.175 22.2 8.175C24.2711 8.175 25.95 9.85393 25.95 11.925C25.95 13.9961 24.2711 15.675 22.2 15.675C21.9166 15.675 21.6405 15.6436 21.375 15.584V15.675H5.85334C5.85222 15.675 5.85111 15.675 5.85 15.675Z" fill="#D9D9D9"/>
<path fill-rule="evenodd" clip-rule="evenodd" d="M27.5926 7.49976C27.5785 7.49992 27.5643 7.5 27.5501 7.5C25.479 7.5 23.8 5.82107 23.8 3.75C23.8 1.67893 25.479 0 27.5501 0C29.4169 0 30.9651 1.36414 31.2523 3.15H32.2751C33.4763 3.15 34.4501 4.12378 34.4501 5.325C34.4501 6.52622 33.4763 7.5 32.2751 7.5H27.625C27.6142 7.5 27.6034 7.49992 27.5926 7.49976Z" fill="#D9D9D9"/>
</svg>
