<svg width="18" height="19" viewBox="0 0 18 19" fill="none" xmlns="http://www.w3.org/2000/svg">
<path d="M16.25 7.625C16.9141 7.625 17.5 8.21094 17.5 8.875V10.125C17.5 10.8281 16.9141 11.375 16.25 11.375H10.625V17C10.625 17.7031 10.0391 18.25 9.375 18.25H8.125C7.42188 18.25 6.875 17.7031 6.875 17V11.375H1.25C0.546875 11.375 0 10.8281 0 10.125V8.875C0 8.21094 0.546875 7.625 1.25 7.625H6.875V2C6.875 1.33594 7.42188 0.75 8.125 0.75H9.375C10.0391 0.75 10.625 1.33594 10.625 2V7.625H16.25Z" fill="black"/>
</svg>
