<svg width="30" height="29" viewBox="0 0 30 29" fill="none" xmlns="http://www.w3.org/2000/svg">
<path fill-rule="evenodd" clip-rule="evenodd" d="M24.0469 17.5319C24.3455 17.599 24.6562 17.6344 24.975 17.6344C27.305 17.6344 29.1938 15.7456 29.1938 13.4156C29.1938 11.0857 27.305 9.19687 24.975 9.19687C24.918 9.19687 24.8612 9.19801 24.8048 9.20025C24.9163 8.68241 24.975 8.14494 24.975 7.59375C24.975 3.39984 21.5752 0 17.3813 0C14.0156 0 11.1613 2.18963 10.1652 5.2221C9.134 4.53409 7.90314 4.13437 6.58126 4.13437C2.94653 4.13437 0 7.15645 0 10.8844C0 14.6123 2.94653 17.6344 6.58126 17.6344H24.0469V17.5319Z" fill="#D9D9D9"/>
<rect x="5.875" y="19" width="0.625001" height="7.8" rx="0.3125" fill="#009FFD"/>
<rect x="20.625" y="18.25" width="0.625001" height="4.625" rx="0.3125" fill="#009FFD"/>
<rect x="16.375" y="20.5" width="0.625001" height="4.625" rx="0.3125" fill="#009FFD"/>
<rect x="23.75" y="20.5" width="0.625001" height="5.625" rx="0.3125" fill="#009FFD"/>
<rect x="11.125" y="22.125" width="0.625001" height="1.625" rx="0.3125" fill="#009FFD"/>
<rect x="23.75" y="26.875" width="0.625001" height="1.625" rx="0.3125" fill="#009FFD"/>
<rect x="11.125" y="25.125" width="0.625001" height="2.875" rx="0.3125" fill="#009FFD"/>
<rect x="20.625" y="24.75" width="0.625001" height="2.875" rx="0.3125" fill="#009FFD"/>
</svg>
