<svg width="20" height="21" viewBox="0 0 20 21" fill="none" xmlns="http://www.w3.org/2000/svg">
<path d="M16.25 5.5C18.3203 5.5 20 7.17969 20 9.25C20 11.3203 18.3203 13 16.25 13H3.75C1.67969 13 0 11.3203 0 9.25C0 7.60938 1.05469 6.20312 2.57812 5.73438C2.5 5.46094 2.5 5.1875 2.5 4.875C2.5 2.49219 4.45312 0.5 6.875 0.5C8.55469 0.5 10 1.47656 10.7422 2.88281C11.2891 2.21875 12.1484 1.75 13.125 1.75C14.8438 1.75 16.25 3.15625 16.25 4.875C16.25 5.10938 16.2109 5.30469 16.1719 5.53906C16.1719 5.53906 16.2109 5.5 16.25 5.5ZM3.4375 15.1484C3.51562 14.7969 3.94531 14.8359 4.0625 15.1484C4.53125 16.8672 5.625 17.3359 5.625 18.5469C5.625 19.6406 4.76562 20.5 3.75 20.5C2.69531 20.5 1.875 19.6406 1.875 18.5469C1.875 17.3359 2.92969 16.8672 3.4375 15.1484ZM9.6875 15.1484C9.76562 14.7969 10.1953 14.8359 10.3125 15.1484C10.7812 16.8672 11.875 17.3359 11.875 18.5469C11.875 19.6406 11.0156 20.5 10 20.5C8.94531 20.5 8.125 19.6406 8.125 18.5469C8.125 17.3359 9.17969 16.8672 9.6875 15.1484ZM15.9375 15.1484C16.0156 14.7969 16.4453 14.8359 16.5625 15.1484C17.0312 16.8672 18.125 17.3359 18.125 18.5469C18.125 19.6406 17.2656 20.5 16.25 20.5C15.1953 20.5 14.375 19.6406 14.375 18.5469C14.375 17.3359 15.4297 16.8672 15.9375 15.1484Z" fill="black"/>
</svg>
