<svg width="16" height="16" viewBox="0 0 16 16" fill="none" xmlns="http://www.w3.org/2000/svg">
<path d="M14.7949 13.8535C15.0586 14.1465 15.0586 14.5859 14.7656 14.8496L13.9453 15.6699C13.6816 15.9629 13.2422 15.9629 12.9492 15.6699L10.0488 12.7695C9.90234 12.623 9.84375 12.4473 9.84375 12.2715V11.7734C8.78906 12.5938 7.5 13.0625 6.09375 13.0625C2.72461 13.0625 0 10.3379 0 6.96875C0 3.62891 2.72461 0.875 6.09375 0.875C9.43359 0.875 12.1875 3.62891 12.1875 6.96875C12.1875 8.4043 11.6895 9.69336 10.8984 10.7188H11.3672C11.543 10.7188 11.7188 10.8066 11.8652 10.9238L14.7949 13.8535ZM6.09375 10.7188C8.14453 10.7188 9.84375 9.04883 9.84375 6.96875C9.84375 4.91797 8.14453 3.21875 6.09375 3.21875C4.01367 3.21875 2.34375 4.91797 2.34375 6.96875C2.34375 9.04883 4.01367 10.7188 6.09375 10.7188Z" fill="black"/>
</svg>
