<svg width="21" height="19" viewBox="0 0 21 19" fill="none" xmlns="http://www.w3.org/2000/svg">
<path d="M6.09375 9.5C8.00781 9.5 9.72656 10.8672 9.96094 12.7812C10.2344 15.0469 8.47656 17 6.21094 17C4.41406 17 2.89062 15.7109 2.53906 13.9922C2.46094 13.6016 2.77344 13.25 3.16406 13.25H4.45312C4.72656 13.25 4.96094 13.4062 5.03906 13.6797C5.19531 14.1484 5.66406 14.5 6.25 14.5C6.99219 14.5 7.57812 13.8359 7.46094 13.0547C7.38281 12.4297 6.79688 12 6.17188 12H0.625C0.273438 12 0 11.7266 0 11.375V10.125C0 9.8125 0.273438 9.5 0.625 9.5H6.09375ZM0.625 8.25C0.273438 8.25 0 7.97656 0 7.625V6.375C0 6.0625 0.273438 5.75 0.625 5.75H13.6719C14.2969 5.75 14.8828 5.35938 14.9609 4.73438C15.0781 3.95312 14.4922 3.25 13.75 3.25C13.1641 3.25 12.6953 3.64062 12.5391 4.10938C12.4609 4.38281 12.2266 4.5 11.9531 4.5H10.6641C10.2734 4.5 9.96094 4.1875 10.0391 3.79688C10.4297 1.84375 12.3828 0.398438 14.5312 0.867188C15.9375 1.14062 17.1094 2.3125 17.3828 3.71875C17.8906 6.14062 16.0547 8.25 13.75 8.25H0.625ZM15.625 9.5C18.3594 9.5 20.5469 12.0781 19.8438 14.9297C19.4922 16.5312 18.1641 17.8203 16.5625 18.1719C14.2578 18.6406 12.1875 17.3125 11.4844 15.3594C11.3672 14.9297 11.6797 14.5 12.1094 14.5H13.3984C13.6328 14.5 13.8672 14.6172 13.9844 14.8125C14.2969 15.3984 14.9219 15.75 15.625 15.75C16.6406 15.75 17.5 14.9297 17.5 13.875C17.5 12.8594 16.6406 12 15.625 12H11.0547C10.7812 11.0234 10.2734 10.1641 9.49219 9.5H15.625Z" fill="black"/>
</svg>
